<svg width="50" height="50" viewBox="0 0 50 50" fill="none" xmlns="http://www.w3.org/2000/svg">
<rect x="1.5" y="1.5" width="47" height="47" stroke="white" stroke-width="3"/>
<path d="M36.3137 36.9411C36.1222 37.1326 35.8624 37.2403 35.5916 37.2403C35.3207 37.2403 35.0609 37.1327 34.8694 36.9411L25 27.0717L15.1306 36.9411C14.9391 37.1327 14.6793 37.2403 14.4084 37.2403C14.1376 37.2403 13.8778 37.1326 13.6863 36.9411C13.4948 36.7496 13.3872 36.4898 13.3872 36.219C13.3872 35.9481 13.4948 35.6883 13.6863 35.4968L23.5557 25.6274L13.6863 15.758C13.4948 15.5665 13.3872 15.3067 13.3872 15.0359C13.3872 14.765 13.4948 14.5052 13.6863 14.3137C13.8778 14.1222 14.1376 14.0146 14.4084 14.0146C14.6793 14.0146 14.9391 14.1222 15.1306 14.3137L25 24.1831L34.8694 14.3137C35.0609 14.1222 35.3207 14.0146 35.5916 14.0146C35.8624 14.0146 36.1222 14.1222 36.3137 14.3137C36.5052 14.5052 36.6128 14.765 36.6128 15.0359C36.6128 15.3067 36.5052 15.5665 36.3137 15.758L26.4443 25.6274L36.3137 35.4968C36.5052 35.6883 36.6128 35.9481 36.6128 36.219C36.6128 36.4898 36.5052 36.7496 36.3137 36.9411Z" fill="white"/>
</svg>
