<svg width="40" height="40" viewBox="0 0 40 40" fill="none" xmlns="http://www.w3.org/2000/svg">
<rect x="1" y="1" width="38" height="38" stroke="white" stroke-width="2"/>
<path d="M28.4853 28.493C28.3416 28.6366 28.1468 28.7173 27.9437 28.7173C27.7405 28.7173 27.5457 28.6366 27.4021 28.493L20 21.0909L12.5979 28.493C12.4543 28.6366 12.2595 28.7173 12.0563 28.7173C11.8532 28.7173 11.6584 28.6366 11.5147 28.493C11.3711 28.3493 11.2904 28.1545 11.2904 27.9513C11.2904 27.7482 11.3711 27.5534 11.5147 27.4097L18.9168 20.0077L11.5147 12.6056C11.3711 12.462 11.2904 12.2671 11.2904 12.064C11.2904 11.8609 11.3711 11.666 11.5147 11.5224C11.6584 11.3787 11.8532 11.298 12.0563 11.298C12.2595 11.298 12.4543 11.3787 12.5979 11.5224L20 18.9244L27.4021 11.5224C27.5457 11.3787 27.7405 11.298 27.9437 11.298C28.1468 11.298 28.3416 11.3787 28.4853 11.5224C28.6289 11.666 28.7096 11.8609 28.7096 12.064C28.7096 12.2671 28.6289 12.462 28.4853 12.6056L21.0832 20.0077L28.4853 27.4097C28.6289 27.5534 28.7096 27.7482 28.7096 27.9513C28.7096 28.1545 28.6289 28.3493 28.4853 28.493Z" fill="white"/>
</svg>
