<svg width="42" height="42" viewBox="0 0 42 42" fill="none" xmlns="http://www.w3.org/2000/svg">
<path d="M5.25 19.25C5.25 12.6508 5.25 9.35025 7.301 7.301C9.35025 5.25 12.6508 5.25 19.25 5.25H22.75C29.3492 5.25 32.6497 5.25 34.699 7.301C36.75 9.35025 36.75 12.6508 36.75 19.25V22.75C36.75 29.3492 36.75 32.6497 34.699 34.699C32.6497 36.75 29.3492 36.75 22.75 36.75H19.25C12.6508 36.75 9.35025 36.75 7.301 34.699C5.25 32.6497 5.25 29.3492 5.25 22.75V19.25Z" stroke="white" stroke-width="2"/>
<path d="M28.875 15.75C30.3247 15.75 31.5 14.5747 31.5 13.125C31.5 11.6753 30.3247 10.5 28.875 10.5C27.4253 10.5 26.25 11.6753 26.25 13.125C26.25 14.5747 27.4253 15.75 28.875 15.75Z" fill="white"/>
<path d="M21 27.125C24.3827 27.125 27.125 24.3827 27.125 21C27.125 17.6173 24.3827 14.875 21 14.875C17.6173 14.875 14.875 17.6173 14.875 21C14.875 24.3827 17.6173 27.125 21 27.125Z" stroke="white" stroke-width="2"/>
</svg>
