<svg width="42" height="42" viewBox="0 0 42 42" fill="none" xmlns="http://www.w3.org/2000/svg">
<path d="M34.0108 7.11328H7.98828C6.82796 7.11328 5.71516 7.57422 4.89469 8.39469C4.07422 9.21516 3.61328 10.328 3.61328 11.4883V30.5108C3.61328 31.6711 4.07422 32.7839 4.89469 33.6044C5.71516 34.4248 6.82796 34.8858 7.98828 34.8858H34.0108C35.1711 34.8858 36.2839 34.4248 37.1044 33.6044C37.9248 32.7839 38.3858 31.6711 38.3858 30.5108V11.4883C38.3858 10.328 37.9248 9.21516 37.1044 8.39469C36.2839 7.57422 35.1711 7.11328 34.0108 7.11328ZM7.98828 8.86328H34.0108C34.6731 8.86179 35.3111 9.11236 35.7953 9.56412C36.2796 10.0159 36.5738 10.635 36.6183 11.2958C32.2958 13.6058 27.9558 15.8983 23.6158 18.2083C23.0296 18.5779 22.4082 18.8886 21.7608 19.1358C21.2531 19.2363 20.7299 19.2274 20.2259 19.1097C19.722 18.9921 19.2489 18.7683 18.8383 18.4533C16.3533 17.1408 13.8683 15.8108 11.4008 14.4983C9.40578 13.4483 7.37578 12.3808 5.38078 11.3133C5.42095 10.6494 5.71331 10.0259 6.19802 9.5705C6.68274 9.11506 7.32317 8.86207 7.98828 8.86328ZM36.6358 30.5108C36.6358 31.207 36.3592 31.8747 35.8669 32.3669C35.3747 32.8592 34.707 33.1358 34.0108 33.1358H7.98828C7.29209 33.1358 6.62441 32.8592 6.13213 32.3669C5.63984 31.8747 5.36328 31.207 5.36328 30.5108V13.2995C9.49328 15.4695 13.6058 17.6745 17.7358 19.862C18.4735 20.3148 19.2679 20.6679 20.0983 20.912C21.3135 21.1099 22.559 20.8546 23.5983 20.1945C26.1358 18.8645 28.6558 17.517 31.1933 16.187C33.0133 15.207 34.8158 14.262 36.6358 13.2995V30.5108Z" fill="white"/>
</svg>
