<svg width="40" height="40" viewBox="0 0 40 40" fill="none" xmlns="http://www.w3.org/2000/svg">
<path d="M31.6667 31.6667L25.2327 25.2327M25.2327 25.2327C26.3332 24.1321 27.2062 22.8255 27.8019 21.3876C28.3975 19.9496 28.704 18.4085 28.704 16.852C28.704 15.2956 28.3975 13.7544 27.8019 12.3164C27.2062 10.8785 26.3332 9.57194 25.2327 8.47138C24.1321 7.37081 22.8255 6.4978 21.3876 5.90218C19.9496 5.30656 18.4085 5 16.852 5C15.2956 5 13.7544 5.30656 12.3164 5.90218C10.8785 6.4978 9.57194 7.37081 8.47138 8.47138C6.24869 10.6941 5 13.7087 5 16.852C5 19.9954 6.24869 23.01 8.47138 25.2327C10.6941 27.4554 13.7087 28.704 16.852 28.704C19.9954 28.704 23.01 27.4554 25.2327 25.2327Z" stroke="white" stroke-width="4" stroke-linecap="round" stroke-linejoin="round"/>
</svg>
