<svg width="42" height="42" viewBox="0 0 42 42" fill="none" xmlns="http://www.w3.org/2000/svg">
<path d="M34.8482 9.31404C35.1783 9.3168 35.5013 9.4098 35.7824 9.58297C36.0634 9.75615 36.2917 10.0029 36.4426 10.2965C36.5934 10.5901 36.6611 10.9194 36.6383 11.2487C36.6154 11.578 36.5029 11.8948 36.3129 12.1648L34.4894 14.7565C34.3774 23.657 31.4007 29.6998 25.6414 32.7185C22.8974 34.0836 19.8648 34.7673 16.8004 34.7118C13.0114 34.7992 9.26717 33.8788 5.95044 32.0448C5.72732 31.8948 5.55487 31.6808 5.45584 31.4309C5.35681 31.1809 5.33584 30.9069 5.39569 30.6448C5.45218 30.379 5.58769 30.1365 5.78444 29.9492C5.98119 29.7618 6.22999 29.6383 6.49819 29.5948C8.72637 29.2836 10.9205 28.7645 13.0519 28.0443C3.50044 23.6255 5.58294 13.6925 6.49294 10.6423C6.58166 10.3395 6.74846 10.0653 6.97662 9.84731C7.20478 9.62933 7.48626 9.47519 7.79282 9.40036C8.09938 9.32554 8.42022 9.33267 8.72315 9.42104C9.02608 9.5094 9.30044 9.67589 9.51869 9.90379C12.3145 12.7848 16.0215 14.609 20.0099 15.0663C19.9394 13.9945 20.1052 12.9203 20.4956 11.9197C20.886 10.919 21.4915 10.0164 22.2692 9.27555C23.6169 7.99659 25.4058 7.28649 27.2637 7.29301C29.1216 7.29953 30.9055 8.02216 32.2442 9.31055L34.8482 9.31404ZM7.91219 31.14C11.1707 32.666 18.8077 34.3233 24.8294 31.168C30.0007 28.4573 32.6624 22.887 32.7412 14.6113C32.7446 14.3376 32.8313 14.0715 32.9897 13.8483L34.8814 11.1568L34.8097 11.064C33.9032 11.0518 33.0089 11.0395 32.0972 11.064C31.7418 11.0551 31.4018 10.9177 31.1399 10.6773C30.1326 9.65615 28.7648 9.07092 27.3306 9.04736C25.8963 9.0238 24.5101 9.56379 23.4697 10.5513C22.8009 11.1865 22.3011 11.9783 22.0154 12.8553C21.7297 13.7322 21.6672 14.6666 21.8334 15.5738C21.8634 15.7428 21.8547 15.9164 21.808 16.0816C21.7614 16.2467 21.6779 16.3992 21.5639 16.5275C21.4544 16.6569 21.3148 16.7572 21.1573 16.8198C20.9998 16.8823 20.8293 16.9052 20.6609 16.8863C15.9589 16.5588 11.5438 14.5052 8.26394 11.12C7.09144 14.7565 5.60394 23.5345 15.0347 26.9838C15.2334 27.0546 15.4076 27.181 15.5366 27.3479C15.6657 27.5148 15.7441 27.7152 15.7627 27.9253C15.783 28.132 15.7444 28.3402 15.6516 28.526C15.5587 28.7117 15.4152 28.8675 15.2377 28.9753C12.9329 30.0984 10.4572 30.83 7.91219 31.14Z" fill="white"/>
</svg>
