<svg width="40" height="40" viewBox="0 0 40 40" fill="none" xmlns="http://www.w3.org/2000/svg">
<path d="M35.8787 32.3049C33.784 28.6095 30.513 25.73 26.5925 24.1301C28.5421 22.6603 29.9823 20.6112 30.709 18.2729C31.4356 15.9347 31.4119 13.4258 30.6413 11.1019C29.8706 8.7779 28.392 6.75657 26.4149 5.32422C24.4379 3.89186 22.0626 3.12109 19.6255 3.12109C17.1884 3.12109 14.8131 3.89186 12.836 5.32422C10.859 6.75657 9.38038 8.7779 8.6097 11.1019C7.83903 13.4258 7.81535 15.9347 8.542 18.2729C9.26866 20.6112 10.7088 22.6603 12.6585 24.1301C8.73791 25.73 5.46697 28.6095 3.37223 32.3049C3.24243 32.5147 3.15592 32.7486 3.11784 32.9927C3.07976 33.2367 3.09089 33.486 3.15057 33.7257C3.21025 33.9653 3.31725 34.1905 3.46522 34.3877C3.6132 34.585 3.79912 34.7503 4.01193 34.8739C4.22474 34.9975 4.4601 35.0768 4.70402 35.1072C4.94794 35.1375 5.19544 35.1182 5.4318 35.0505C5.66816 34.9827 5.88855 34.8679 6.07989 34.7129C6.27122 34.5578 6.42959 34.3657 6.54557 34.1478C9.31403 29.3379 14.2031 26.4691 19.6255 26.4691C25.0478 26.4691 29.9369 29.3394 32.7054 34.1478C32.9567 34.5541 33.3554 34.8462 33.8171 34.9623C34.2788 35.0785 34.7674 35.0096 35.1795 34.7703C35.5916 34.531 35.895 34.1399 36.0254 33.6799C36.1559 33.2198 36.1033 32.7267 35.8787 32.3049ZM11.6807 14.7974C11.6807 13.2179 12.1466 11.6739 13.0196 10.3607C13.8926 9.0474 15.1334 8.02382 16.5851 7.41939C18.0369 6.81496 19.6343 6.65681 21.1754 6.96495C22.7166 7.27308 24.1322 8.03367 25.2433 9.15051C26.3544 10.2674 27.1111 11.6903 27.4176 13.2394C27.7242 14.7885 27.5669 16.3942 26.9655 17.8535C26.3642 19.3127 25.3459 20.5599 24.0394 21.4374C22.7329 22.3149 21.1968 22.7833 19.6255 22.7833C17.5191 22.7809 15.4997 21.9387 14.0103 20.4416C12.5209 18.9445 11.6831 16.9146 11.6807 14.7974Z" fill="white"/>
</svg>
