<svg width="24" height="24" viewBox="0 0 24 24" fill="none" xmlns="http://www.w3.org/2000/svg">
<path d="M23.89 22.4195C22.0323 19.2175 19.1159 16.9707 15.7271 16.0178C17.3747 15.1825 18.6921 13.818 19.4671 12.1444C20.2421 10.4708 20.4293 8.58558 19.9987 6.79281C19.5682 5.00004 18.5448 3.40417 17.0936 2.26252C15.6425 1.12088 13.8482 0.5 12 0.5C10.1518 0.5 8.3575 1.12088 6.90636 2.26252C5.45522 3.40417 4.43185 5.00004 4.00126 6.79281C3.57066 8.58558 3.75794 10.4708 4.5329 12.1444C5.30785 13.818 6.62532 15.1825 8.27286 16.0178C4.88412 16.9695 1.96774 19.2163 0.110041 22.4195C0.0590305 22.4996 0.0247792 22.5891 0.00934722 22.6826C-0.00608476 22.7762 -0.00237837 22.872 0.0202431 22.9641C0.0428645 23.0562 0.0839335 23.1428 0.14098 23.2187C0.198026 23.2946 0.26987 23.3581 0.352191 23.4056C0.434511 23.4531 0.525606 23.4834 0.619996 23.4949C0.714386 23.5063 0.810119 23.4986 0.901438 23.4722C0.992756 23.4457 1.07777 23.4011 1.15137 23.3411C1.22497 23.2811 1.28563 23.2068 1.3297 23.1227C3.5869 19.2327 7.5749 16.9109 12 16.9109C16.4251 16.9109 20.4131 19.2327 22.6703 23.1227C22.7144 23.2068 22.775 23.2811 22.8486 23.3411C22.9222 23.4011 23.0072 23.4457 23.0986 23.4722C23.1899 23.4986 23.2856 23.5063 23.38 23.4949C23.4744 23.4834 23.5655 23.4531 23.6478 23.4056C23.7301 23.3581 23.802 23.2946 23.859 23.2187C23.9161 23.1428 23.9571 23.0562 23.9798 22.9641C24.0024 22.872 24.0061 22.7762 23.9907 22.6826C23.9752 22.5891 23.941 22.4996 23.89 22.4195ZM5.18492 8.70668C5.18492 7.3622 5.58462 6.04791 6.33347 4.93002C7.08232 3.81212 8.14669 2.94083 9.39198 2.42632C10.6373 1.91181 12.0076 1.77719 13.3296 2.03948C14.6516 2.30178 15.8659 2.94921 16.819 3.8999C17.7721 4.85059 18.4212 6.06185 18.6841 7.38049C18.9471 8.69914 18.8121 10.066 18.2963 11.3081C17.7805 12.5502 16.907 13.6119 15.7863 14.3589C14.6655 15.1058 13.3479 15.5045 12 15.5045C10.1932 15.5023 8.46102 14.7854 7.18342 13.5111C5.90581 12.2367 5.1871 10.5089 5.18492 8.70668Z" fill="white"/>
</svg>
