<svg width="42" height="42" viewBox="0 0 42 42" fill="none" xmlns="http://www.w3.org/2000/svg">
<path d="M25.886 18.8562L19.467 15.1603C19.0901 14.9433 18.6628 14.8292 18.2279 14.8295C17.793 14.8299 17.3659 14.9445 16.9893 15.1621C16.6128 15.3796 16.3 15.6923 16.0825 16.0689C15.865 16.4455 15.7503 16.8726 15.75 17.3075V24.696C15.7448 25.5815 16.2173 26.4005 16.9855 26.838C17.3622 27.058 17.7904 27.1743 18.2267 27.1749C18.6629 27.1755 19.0915 27.0605 19.4688 26.8415L25.886 23.1455C26.263 22.9288 26.5761 22.6165 26.7939 22.2401C27.0117 21.8637 27.1263 21.4366 27.1263 21.0018C27.1263 20.5669 27.0117 20.1398 26.7939 19.7634C26.5761 19.387 26.263 19.0747 25.886 18.858M25.011 21.6265L18.5955 25.3243C18.4843 25.3895 18.3578 25.4239 18.2289 25.4239C18.1 25.4239 17.9734 25.3895 17.8622 25.3243C17.7507 25.2611 17.6583 25.1692 17.5945 25.058C17.5308 24.9469 17.4981 24.8206 17.5 24.6925V17.3075C17.4988 17.18 17.5317 17.0544 17.5954 16.944C17.6591 16.8335 17.7513 16.7421 17.8622 16.6793C17.9725 16.6122 18.099 16.5767 18.228 16.5767C18.357 16.5767 18.4835 16.6122 18.5938 16.6793L25.011 20.377C25.1217 20.4395 25.2138 20.5303 25.2778 20.6401C25.3419 20.7498 25.3757 20.8746 25.3757 21.0018C25.3757 21.1289 25.3419 21.2537 25.2778 21.3634C25.2138 21.4732 25.1217 21.564 25.011 21.6265ZM33.25 7H8.75C7.35804 7.00139 6.02349 7.55496 5.03922 8.53922C4.05496 9.52349 3.50139 10.858 3.5 12.25V29.75C3.50139 31.142 4.05496 32.4765 5.03922 33.4608C6.02349 34.445 7.35804 34.9986 8.75 35H33.25C34.642 34.9986 35.9765 34.445 36.9608 33.4608C37.945 32.4765 38.4986 31.142 38.5 29.75V12.25C38.4986 10.858 37.945 9.52349 36.9608 8.53922C35.9765 7.55496 34.642 7.00139 33.25 7ZM36.75 29.75C36.7486 30.6778 36.3794 31.5673 35.7233 32.2233C35.0673 32.8794 34.1778 33.2486 33.25 33.25H8.75C7.82217 33.2486 6.93274 32.8794 6.27666 32.2233C5.62058 31.5673 5.25139 30.6778 5.25 29.75V12.25C5.25139 11.3222 5.62058 10.4327 6.27666 9.77666C6.93274 9.12058 7.82217 8.75139 8.75 8.75H33.25C34.1778 8.75139 35.0673 9.12058 35.7233 9.77666C36.3794 10.4327 36.7486 11.3222 36.75 12.25V29.75Z" fill="white"/>
</svg>
